<?xml version="1.0" standalone="no"?>
<!DOCTYPE svg PUBLIC "-//W3C//DTD SVG 20010904//EN"
 "http://www.w3.org/TR/2001/REC-SVG-20010904/DTD/svg10.dtd">
<svg version="1.0" xmlns="http://www.w3.org/2000/svg"
 width="170.000000pt" height="48.000000pt" viewBox="0 0 170.000000 48.000000"
 preserveAspectRatio="xMidYMid meet">

<g transform="translate(0.000000,48.000000) scale(0.100000,-0.100000)"
fill="#000000" stroke="none">
<path d="M40 310 l0 -170 25 0 c25 0 25 1 25 80 l0 80 80 0 c73 0 80 2 80 20
0 18 -7 20 -80 20 l-80 0 0 50 0 50 90 0 c83 0 90 1 90 20 0 19 -7 20 -115 20
l-115 0 0 -170z"/>
<path d="M331 318 c-34 -90 -61 -166 -61 -170 0 -5 11 -8 24 -8 19 0 27 9 42
53 l19 52 70 0 69 0 21 -52 c17 -47 23 -53 48 -53 16 0 27 4 25 9 -1 5 -32 81
-68 170 -64 159 -65 161 -96 161 -31 0 -31 0 -93 -162z m125 30 l23 -58 -54 0
-54 0 20 58 c12 31 24 64 26 72 4 12 6 13 11 1 2 -8 15 -40 28 -73z"/>
<path d="M620 310 l0 -170 85 0 c132 0 175 26 175 105 0 25 -8 43 -24 60 -20
20 -22 26 -11 35 35 29 21 118 -20 134 -9 3 -59 6 -111 6 l-94 0 0 -170z m190
110 c26 -48 -13 -80 -96 -80 l-44 0 0 50 0 50 65 0 c54 0 66 -3 75 -20z m-2
-136 c25 -18 30 -65 8 -83 -8 -7 -43 -13 -78 -14 l-63 -2 -3 58 -3 57 58 0
c37 0 67 -6 81 -16z"/>
<path d="M950 310 l0 -170 25 0 25 0 0 170 0 170 -25 0 -25 0 0 -170z"/>
<path d="M1106 322 c-33 -86 -61 -163 -64 -169 -3 -8 5 -13 21 -13 22 0 29 8
45 53 l20 52 66 3 67 3 24 -56 c21 -46 29 -55 51 -55 21 0 25 4 20 18 -4 9
-34 86 -68 170 -61 149 -63 152 -93 152 -30 0 -31 -2 -89 -158z m119 35 l25
-67 -50 0 c-28 0 -50 3 -50 7 0 12 43 133 46 130 2 -2 15 -33 29 -70z"/>
<path d="M1400 310 c0 -162 1 -170 20 -170 18 0 20 8 22 131 l3 132 88 -132
c73 -110 91 -131 112 -131 l25 0 0 170 0 170 -25 0 -25 0 0 -127 0 -128 -85
128 c-71 106 -89 127 -110 127 l-25 0 0 -170z"/>
</g>
</svg>
